<svg width="35" height="23" viewBox="0 0 35 23" fill="none" xmlns="http://www.w3.org/2000/svg">
<path d="M1.93066 9.99866C1.10224 9.99866 0.430664 10.6702 0.430664 11.4987C0.430664 12.3271 1.10224 12.9987 1.93066 12.9987V9.99866ZM34.1361 12.5593C34.7219 11.9735 34.7219 11.0238 34.1361 10.438L24.5902 0.892056C24.0044 0.306269 23.0547 0.306269 22.4689 0.892056C21.8831 1.47784 21.8831 2.42759 22.4689 3.01338L30.9542 11.4987L22.4689 19.9839C21.8831 20.5697 21.8831 21.5195 22.4689 22.1053C23.0547 22.691 24.0044 22.691 24.5902 22.1053L34.1361 12.5593ZM1.93066 11.4987V12.9987H33.0755V11.4987V9.99866H1.93066V11.4987Z" fill="#1E1E1E"/>
</svg>
