<svg width="26" height="26" viewBox="0 0 26 26" fill="none" xmlns="http://www.w3.org/2000/svg">
<path d="M0.431527 23.4493C-0.154259 24.0351 -0.154259 24.9849 0.431527 25.5707C1.01731 26.1565 1.96706 26.1565 2.55285 25.5707L0.431527 23.4493ZM25.0149 2.4873C25.0149 1.65887 24.3433 0.987296 23.5149 0.987296H10.0149C9.18647 0.987296 8.5149 1.65887 8.5149 2.4873C8.5149 3.31572 9.18647 3.9873 10.0149 3.9873L22.0149 3.9873L22.0149 15.9873C22.0149 16.8157 22.6865 17.4873 23.5149 17.4873C24.3433 17.4873 25.0149 16.8157 25.0149 15.9873V2.4873ZM1.49219 24.51L2.55285 25.5707L24.5756 3.54796L23.5149 2.4873L22.4542 1.42664L0.431527 23.4493L1.49219 24.51Z" fill="#1E1E1E"/>
</svg>
