<svg width="346" height="419" viewBox="0 0 346 419" fill="none" xmlns="http://www.w3.org/2000/svg">
<path d="M111.179 120.485L94.3497 156.237L89.6632 173.262H96.267H114.267L257.42 173.368L256.035 150.172L241.23 122.081L217.371 101.013L190.211 88.2441L172.849 87.0736L141.854 95.9052L111.179 120.485ZM252.946 291.903L266.686 275.41L316.214 330.635L299.918 348.936L274.355 372.771L230.685 401.926L177.855 410.332L174.447 410.119L138.765 407.672L132.055 406.501L82.2074 380.219L42.6914 342.339L18.8327 276.581L8.39453 223.591L12.5485 168.261L30.4425 115.909L58.9877 67.2823L111.924 22.0602L128.327 17.3784C153.89 10.0364 180.624 7.16348 207.146 8.75955L231.111 20.2513C247.088 27.9125 261.68 38.0209 274.355 50.3639L295.551 70.7937L322.179 121.442L333.682 169.005L336.452 206.673L306.522 206.779L306.628 234.445L81.7813 233.806L84.7636 265.834L101.593 295.308L120.871 313.716L150.588 329.677L176.47 331.805L208.211 326.804L235.052 308.822L252.946 291.903Z" fill="#FFFF00" stroke="#FFFF00" stroke-width="16.6632" stroke-miterlimit="10"/>
</svg>
