<?xml version="1.0" encoding="UTF-8"?>
<svg id="Layer_1" xmlns="http://www.w3.org/2000/svg" version="1.1" viewBox="0 0 304.5 391.8">
  <!-- Generator: Adobe Illustrator 30.0.0, SVG Export Plug-In . SVG Version: 2.1.1 Build 123)  -->
  <defs>
    <style>
      .st0 {
        fill: #f0ff00;
      }
    </style>
  </defs>
  <path class="st0" d="M217.9,268.8l-15.1,15.1-21.9,15.6-25.6,4.3-20.4-1.8-24.1-13.8-15.6-15.9-13.7-25.6-1.9-21,198.1.5v-26c0,0,26.8,0,26.8,0l-3-43.4-10.4-46-24.4-49.3-19.5-20c-11.8-12.1-25.3-22-40.1-29.6L184.7.5h-1.4c-24.4-1.6-48.7,1.2-72.2,8.3l-16,4.9-48.8,44.3-26.2,47.3L3.8,156l-3.8,53.8,9.5,51.1,21.8,63.8,36.7,37.4,45.9,25.7,7.1,1.3,36.2,2.6,49.1-8.3,39.9-28.3.5-.3,23-22.8,18.6-22.2-53.1-63-17.2,21.9h0ZM87.9,154.8l1.7-6.7,14-31.6,24.8-21.1,24.8-7.5,12.7.9,21.9,10.9,19.4,18.2,11.9,23.9.7,13h-119.2c0-.1-12.7-.1-12.7-.1h0Z"/>
</svg>