<?xml version="1.0" encoding="UTF-8"?>
<svg id="Layer_2" xmlns="http://www.w3.org/2000/svg" viewBox="0 0 795.6346 532.8">
  <defs>
    <style>
      .cls-1 {
        fill: #f0ff00;
      }
    </style>
  </defs>
  <g id="Layer_1-2" data-name="Layer_1">
    <g>
      <path class="cls-1" d="M261.0413,532.8c-1.8066-.2835-3.6038-.6935-5.4214-.8271-5.7359-.4214-11.4837-.6817-17.2188-1.1119-6.4483-.4837-12.938-.6095-19.2969-1.9538-1.0016-.2118-2.0114-.555-2.9159-1.0303-13.5159-7.1017-27.0148-14.2357-40.5175-21.3624-.2828-.1492-.5518-.333-.8476-.4484-4.5063-1.7583-7.9465-4.9635-11.3458-8.252-10.5696-10.2248-21.1582-20.4302-31.7699-30.6114-1.251-1.2002-2.0665-2.5612-2.6528-4.1836-6.9257-19.164-13.8543-38.3272-20.8839-57.4533-1.7268-4.6982-2.3999-9.6006-3.372-14.4477-2.5609-12.7689-5.0512-25.552-7.5366-38.3359-.2265-1.1649-.3686-2.3861-.2894-3.5637.3588-5.3359.8227-10.6645,1.2264-15.9975.3857-5.0948.7413-10.1919,1.1144-15.2877.4955-6.7675.8925-13.5448,1.5556-20.296.1988-2.0238,1.0897-3.993,1.7579-5.9552,3.9924-11.7254,8.0104-23.4421,12.0245-35.1601,1.0359-3.0239,2.0725-6.0478,3.1446-9.0589.293-.8228.6482-1.6392,1.0898-2.3911,8.4176-14.3331,16.9185-28.6179,25.2304-43.0118,1.7532-3.0362,4.3215-5.0944,6.8511-7.2623,14.1377-12.1167,28.3403-24.1579,42.4499-36.3071,2.7766-2.3908,5.7174-4.1028,9.3058-5.0828,11.0279-3.0116,21.9753-6.3187,33.2565-8.3116,8.5819-1.516,17.1914-2.8835,25.914-3.1591,8.5445-.2699,17.0964-.3064,25.6452-.437,2.9248-.0447,5.6403.6083,8.3019,1.9312,7.8738,3.9134,15.8889,7.5446,23.7401,11.5015,12.7018,6.4016,24.429,14.2904,34.8563,23.9851,8.0173,7.4541,15.8542,15.1032,23.701,22.7378,1.1177,1.0875,1.9825,2.5068,2.7196,3.9017,7.9894,15.1201,15.9372,30.2622,23.8654,45.4145.4738.9055.7632,1.9296,1.0048,2.9308,3.393,14.059,6.8223,28.1099,10.0899,42.1982.6799,2.9313.8259,5.9993,1.0672,9.0163.4264,5.3316.7154,10.674,1.1019,16.009.4038,5.5729.8078,11.1466,1.301,16.7121.3554,4.0098.2802,4.1225-3.8337,4.1686-7.2721.0815-14.5439.2006-21.8156.3226-2.3398.0393-2.5688.258-2.5724,2.6744-.0101,6.8727.0194,13.7454.0342,20.6181.0071,3.3244-.1762,3.5617-3.5069,3.5442-18.5469-.0974-37.0935-.269-55.6405-.3247-24.8687-.0747-49.7377-.069-74.6065-.0935-20.6308-.0203-41.2616-.0211-61.8923-.0653-3.1939-.0068-6.3872-.2021-9.581-.3048-.4793-.0154-.9597-.0099-1.4392.0021-2.3755.0592-2.6697.3884-2.4187,2.6651.1312,1.1902.2583,2.381.3739,3.5728.3313,3.4167.5627,6.8467,1.0262,10.2452.1999,1.4652.6537,2.9886,1.3704,4.2751,4.0833,7.3293,8.2592,14.6074,12.4625,21.869.6288,1.0862,1.4711,2.0941,2.3801,2.9657,4.3835,4.2028,8.8011,8.3709,13.2598,12.4937,1.1032,1.02,2.3192,1.982,3.6309,2.7023,6.7261,3.6937,13.519,7.266,20.2461,10.9579,1.9354,1.0622,3.9372,1.7095,6.1194,1.8823,5.9723.4729,11.9419.9828,17.9178,1.4039,1.0162.0716,2.0626-.1949,3.0876-.354,7.265-1.1276,14.5265-2.2774,21.7927-3.3973,1.7687-.2726,3.3482-.8871,4.8479-1.905,6.4163-4.355,12.9212-8.5805,19.3088-12.9766,2.0273-1.3952,3.8422-3.1169,5.6639-4.7877,3.0623-2.8086,6.1956-5.5612,9.0376-8.5829,3.8817-4.1273,7.5512-8.4564,11.2493-12.7527,2.7626-3.2094,5.4326-6.4987,8.1288-9.7647.5063-.6133.9416-1.2851,1.3349-1.8271,2.1615,1.2884,55.6398,60.7566,57.1531,63.397-1.1848,1.3861-2.3978,2.8489-3.6571,4.2706-5.2449,5.9216-10.407,11.9208-15.7951,17.7096-3.0427,3.2689-6.4551,6.1956-9.7205,9.2556-4.3732,4.0981-8.7513,8.1912-13.1592,12.2519-1.1119,1.0243-2.279,2.0157-3.5328,2.8551-12.9543,8.6733-25.9376,17.3034-38.8948,25.9725-1.557,1.0418-3.1658,1.7124-5.052,2.0033-15.0063,2.314-30.0007,4.7053-44.9935,7.1052-1.0883.1742-2.1358.6035-3.2023.9142h-3.359ZM190.4337,297.1427c1.6836.075,2.7788.1661,3.8742.1665,36.2954.014,72.5909.0186,108.8863.0265,7.8346.0017,15.6693.0259,23.5038.0068,2.2412-.0055,2.4993-.356,2.3671-2.5168-.1558-2.5491-.344-5.0996-.3805-7.6515-.0305-2.1329-.5324-4.0723-1.541-5.9544-3.4342-6.4079-6.7729-12.8671-10.2246-19.2655-.5924-1.0982-1.4415-2.1253-2.3724-2.9627-4.9293-4.4345-9.9182-8.803-14.896-13.1836-2.0904-1.8397-4.0485-3.7888-6.7016-4.9556-5.412-2.3803-10.7308-4.9736-16.0719-7.513-2.7577-1.3112-5.508-2.5665-8.6888-2.2629-.5437.0519-1.1075-.1321-1.6641-.1854-4.1574-.3987-8.2458-.3978-12.3289.8758-6.3313,1.9748-12.756,3.6483-19.1099,5.5537-1.3403.4019-2.6937,1.0656-3.789,1.9283-7.4704,5.8839-14.8539,11.8779-22.3148,17.774-1.4922,1.1793-2.5385,2.5714-3.3286,4.2795-4.2259,9.1359-8.5881,18.2098-12.7138,27.3902-1.1243,2.5018-1.5935,5.2977-2.5055,8.4501Z"/>
      <path class="cls-1" d="M81.5502.519c.0159,1.2782.0458,2.5564.0459,3.8346.0021,172.677.002,345.3539.0018,518.0309,0,.7192.0127,1.4387-.0059,2.1574-.0607,2.3445-.2374,2.5095-2.6788,2.5669-.1598.0037-.3198.0021-.4797.0021-25.5055,0-51.011.0002-76.5165-.0032-.639,0-1.2779-.0407-1.9169-.0625C0,351.5248,0,176.0044,0,.4839c10.1539,0,20.3077-.0038,30.4616.0011,17.0296.0083,34.0591.0223,51.0887.0339Z"/>
      <path class="cls-1" d="M81.5502.519c-17.0295-.0116-34.0591-.0256-51.0887-.0339C20.3077.4801,10.1539.484,0,.4839.08.3241.1516.0313.2413.0257.8786-.0143,1.5195.0044,2.1593.0044c26.472,0,52.944,0,79.4161,0-.0084.1715-.0168.3431-.0252.5146Z"/>
      <path class="cls-1" d="M589.7407,103.0579c-.999-.5183-1.78-.8712-2.5091-1.3099-6.9871-4.2047-13.9434-8.461-20.9653-12.6065-1.3452-.7941-2.8947-1.3825-4.4258-1.6953-4.3056-.8797-8.649-1.5765-12.981-2.3249-2.3814-.4114-3.866.4746-4.4553,2.8384-.383,1.536-.6944,3.1387-.6988,4.7125-.0484,17.5828-.0308,35.1657-.0309,52.7486,0,.1598-.0016.3197.0014.4795.048,2.5169.1931,2.6965,2.7721,2.6989,14.6347.0135,29.2694.0058,43.904.0088q3.7396.0007,3.7473,3.6642c.0022,27.0132.0023,54.0263,0,81.0395q-.0004,3.5227-3.6288,3.5306c-14.3148.0031-28.6296.0002-42.9444.0022q-3.8453.0006-3.8513,3.7999c-.0012,93.7488-.0009,187.4977-.0026,281.2465,0,.9588-.0167,1.9176-.0373,2.8762-.0229,1.0714-.6162,1.5961-1.6518,1.6534-.6382.0353-1.2783.0509-1.9175.0509-24.4711.0025-48.9421.0042-73.4132.0001-4.09-.0007-4.0938-.0133-4.0938-4.1683-.0008-93.589-.0006-187.178-.0016-280.7669,0-.9589-.0211-1.9179-.0196-2.8768.0018-1.1657-.5384-1.7906-1.7368-1.7925-.7196-.0012-1.4392-.0222-2.1588-.0222-14.4747-.0014-28.9494.0009-43.4242-.0028-3.4874-.0009-3.4977-.0097-3.498-3.4163-.0029-27.0937-.0028-54.1873,0-81.281.0004-3.5282.01-3.5356,3.6327-3.5364,14.5547-.0032,29.1094.0004,43.6641-.0029q3.5338-.0008,3.5405-3.6127c.0021-21.9786.0175-43.9573-.0249-65.9358-.0041-2.1297.366-4.0848,1.2309-6.0267,6.6646-14.9648,13.2958-29.9446,19.9054-44.9338.4836-1.0967,1.2002-1.8089,2.2372-2.3606,11.6447-6.1959,23.3778-12.2369,34.8639-18.7149,5.1122-2.8832,10.224-4.2605,16.1113-4.3191,10.618-.1057,21.2282-.9284,31.8435-1.4123,1.2681-.0578,2.5578.0498,3.8197.2161,8.0805,1.065,16.1575,2.1578,24.2323,3.2655,1.9489.2674,2.0955.5319,1.9194,2.4855-.7742,8.5872-1.5132,17.1775-2.3074,25.7628-.8752,9.4599-1.8215,18.9131-2.6904,28.3736-.7229,7.8708-1.3738,15.7482-2.0652,23.6219-.4889,5.5671-.9888,11.1332-1.4965,16.6986-.0277.3039-.171.5973-.3952,1.3447Z"/>
      <path class="cls-1" d="M786.9752,103.065c-1.1556-.607-2.0073-1.0014-2.8067-1.4825-6.9863-4.2047-13.9414-8.4617-20.9627-12.6068-1.2751-.7528-2.7718-1.2553-4.2315-1.5476-4.2307-.8471-8.4941-1.5316-12.7457-2.2737-2.6355-.46-4.0194.3198-4.6383,2.8416-.3771,1.5367-.6618,3.1418-.6659,4.717-.046,17.5813-.0292,35.1627-.0291,52.7441,0,.3196-.0083.6399.0078.9588.0941,1.8567.2898,2.0723,2.0822,2.1739.7176.0407,1.4389.0163,2.1586.0163,14.2336.0007,28.4672-.002,42.7008.0026,3.4622.0011,3.474.012,3.4744,3.4551.0033,27.0913.003,54.1827.0006,81.274-.0003,3.4906-.0088,3.5021-3.4147,3.5032-14.3935.0049-28.787.001-43.1805.0031q-3.8234.0006-3.8291,3.8215c-.0012,93.7408-.0009,187.4816-.0026,281.2225,0,.9587-.0166,1.9175-.0368,2.876-.0226,1.0704-.6128,1.6005-1.6494,1.6551-.718.0378-1.4381.052-2.1572.052-24.5489.0026-49.0979.0033-73.6468.0009q-3.6357-.0004-3.6404-3.7609c-.0009-93.7403-.0007-187.4806-.0026-281.221,0-1.0385-.0092-2.0777-.0456-3.1155-.0335-.9559-.5613-1.458-1.5157-1.4888-.7989-.0258-1.5985-.0408-2.3978-.041-14.3935-.0024-28.787-.0003-43.1805-.0029q-3.6994-.0007-3.705-3.6912c-.0016-26.9315-.0017-53.863,0-80.7945q.0002-3.7405,3.6606-3.7485c14.4735-.0032,28.947.0007,43.4205-.003q3.7541-.001,3.7636-3.6992c.0031-21.9767.0213-43.9535-.0274-65.9302-.0052-2.3065.5122-4.375,1.444-6.4605,5.9976-13.4232,11.9573-26.8636,17.8696-40.3246,2.4352-5.5443,2.3627-5.5831,7.705-8.44,11.7717-6.2952,23.5653-12.55,35.3106-18.8939,2.4634-1.3305,4.9739-1.9089,7.7713-2.0084,9.18-.3265,18.3556-.8061,27.5274-1.3233,6.8082-.3839,13.5593-.0632,20.297.9916,5.2086.8154,10.4499,1.4195,15.6682,2.1761,2.2647.3284,2.4117.4437,2.2715,2.7659-.3173,5.2575-.7255,10.5106-1.1754,15.7587-.5182,6.0446-1.1255,12.0816-1.6863,18.1226-.5902,6.3587-1.1779,12.7176-1.7536,19.0777-.3886,4.2934-.7443,8.5897-1.133,12.8831-.583,6.4396-1.1889,12.8772-1.7713,19.3169-.2373,2.6238-.424,5.2523-.6655,7.8757-.0695.7548-.2505,1.4993-.4365,2.5718Z"/>
    </g>
  </g>
</svg>