<?xml version="1.0" encoding="UTF-8"?>
<svg width="327.614" height="76.4912" version="1.1" viewBox="0 0 86.6812 20.2383" xmlns="http://www.w3.org/2000/svg"><g transform="translate(-112.357 -165.503)"><text transform="scale(.888178 1.1259)" x="139.88583" y="151.29675" fill="#333333" font-family="'Arial Black'" font-size="2.93416px" font-weight="bold" letter-spacing="-.144263px" stroke-linejoin="round" stroke-width="1.84829" style="line-height:2.69887304px" xml:space="preserve"><tspan x="139.88583" y="153.44304" fill="#333333" font-family="'Fira Sans Condensed'" font-size="2.93416px" font-stretch="condensed" font-weight="500" letter-spacing="-.144263px" stroke-width="1.84829" style="line-height:2.69887304px"/></text><g fill="#333"><g fill-rule="evenodd"><circle cx="121.935" cy="174.05" r=".721033"/><circle cx="125.682" cy="174.05" r=".721033"/><circle cx="117.841" cy="170.44" r=".721033"/><circle cx="123.808" cy="170.44" r=".721033"/><circle cx="129.776" cy="170.44" r=".721033"/><circle cx="117.841" cy="180.991" r=".721033"/><circle cx="129.776" cy="180.991" r=".721033"/></g><g><path d="m138.907 173.337q0 0.44012-0.18344 0.79221-0.18344 0.3521-0.55748 0.55749-0.36677 0.20539-0.90224 0.20539-0.80688 0-1.23233-0.42545-0.42545-0.4328-0.42545-1.12964v-3.631h1.04162v3.58699q0 0.4181 0.1467 0.61616 0.14671 0.198 0.46946 0.198 0.31541 0 0.46212-0.198 0.1467-0.20539 0.1467-0.61616v-3.58699h1.0343z"/><path d="m141.505 170.777q0.41812 0 0.66018 0.30076 0.24208 0.30074 0.24208 0.80688v2.89744h-0.99761v-2.78742q0-0.24205-0.0661-0.34475-0.0661-0.10281-0.198-0.10281-0.26407 0-0.54281 0.52815v2.70672h-0.99761v-3.88772h0.8729l0.0735 0.49148q0.19061-0.30076 0.41813-0.45479 0.22734-0.1541 0.53547-0.1541z"/><path d="m143.628 168.914q0.26407 0 0.42545 0.16865 0.16149 0.16866 0.16149 0.42545 0 0.2494-0.16149 0.4181-0.16149 0.1615-0.42545 0.1615-0.25675 0-0.42545-0.1615-0.16149-0.16865-0.16149-0.4181 0-0.25675 0.16149-0.42545 0.16866-0.16865 0.42545-0.16865zm0.4988 5.86825h-0.9976v-3.88771h0.9976z"/><path d="m146.689 174.782h-1.18097l-1.01962-3.88771h1.02694l0.58683 3.11017 0.60149-3.11017h0.97561z"/><path d="m150.847 172.75q0 0.0806-0.0231 0.38876h-1.98789q0.0293 0.57216 0.198 0.79222 0.17605 0.21994 0.48413 0.21994 0.21278 0 0.39611-0.0732 0.18344-0.0806 0.39611-0.24205l0.41077 0.55014q-0.52814 0.51347-1.26902 0.51347-0.78487 0-1.20299-0.53547-0.4181-0.53549-0.4181-1.4964 0-0.96094 0.39611-1.52575 0.3961-0.56483 1.13696-0.56483 0.69687 0 1.08563 0.50615 0.3961 0.4988 0.3961 1.46706zm-0.96826-0.28609q0-0.52814-0.11737-0.76287-0.11736-0.24205-0.38876-0.24205-0.2494 0-0.38143 0.23473-0.12476 0.23473-0.1541 0.82888h1.04161z"/><path d="m153.222 170.791q0.16865 0 0.30074 0.0513l-0.1615 0.96092q-0.13192-0.0439-0.27139-0.0439-0.27874 0-0.4328 0.23473-0.1541 0.22734-0.23473 0.6822v2.10522h-0.9976v-3.88772h0.87291l0.0732 0.66018q0.2714-0.76287 0.8509-0.76287z"/><path d="m154.933 170.777q0.35942 0 0.66018 0.12476 0.30809 0.11736 0.53547 0.34475l-0.37409 0.54281q-0.39611-0.28607-0.74088-0.28607-0.19799 0-0.30808 0.10258-0.10997 0.0954-0.10997 0.27875 0 0.12475 0.0513 0.21278 0.0587 0.0806 0.19799 0.16865 0.13932 0.0806 0.42545 0.198 0.4988 0.19799 0.73353 0.46946 0.23473 0.26407 0.23473 0.71886 0 0.5795-0.40345 0.91693-0.40343 0.33007-1.03427 0.33007-0.40345 0-0.7482-0.1467-0.34477-0.14671-0.59418-0.41078l0.46947-0.5208q0.44011 0.35942 0.8289 0.35942 0.21994 0 0.34475-0.11736 0.12475-0.11737 0.12475-0.32276 0-0.22733-0.13215-0.35209-0.13192-0.13215-0.54281-0.29341-0.50615-0.20539-0.72621-0.46946-0.21278-0.26408-0.21278-0.67485 0-0.33008 0.1541-0.59415 0.16149-0.27142 0.46214-0.42545 0.30073-0.1541 0.70419-0.1541z"/><path d="m157.239 168.914q0.26407 0 0.42545 0.16865 0.16149 0.16866 0.16149 0.42545 0 0.2494-0.16149 0.4181-0.16149 0.1615-0.42545 0.1615-0.25675 0-0.42545-0.1615-0.16149-0.16865-0.16149-0.4181 0-0.25675 0.16149-0.42545 0.16866-0.16865 0.42545-0.16865zm0.4988 5.86825h-0.9976v-3.88771h0.9976z"/><path d="m160.527 174.606q-0.18344 0.1467-0.4181 0.21994-0.22734 0.0735-0.46214 0.0735-0.53547 0-0.80688-0.30074-0.2714-0.30808-0.2714-0.8289v-2.16391h-0.43279v-0.71153h0.43279v-0.8509l0.9976-0.12476v0.97559h0.72619l-0.0954 0.71153h-0.63084v2.15659q0 0.33742 0.27875 0.33742 0.0954 0 0.16865-0.0231 0.0732-0.0293 0.17605-0.088z"/><path d="m162.642 174.789q-0.38144 1.47439-1.82649 1.5991l-0.10997-0.69687q0.46214-0.0806 0.69687-0.28606 0.23473-0.198 0.36676-0.62352h-0.37411l-0.96092-3.88771h1.01228l0.58682 3.23488 0.63817-3.23488h0.99028z"/><path d="m166.852 170.777q0.7482 0 1.1663 0.52082 0.41812 0.5208 0.41812 1.54042 0 0.97558-0.42544 1.5184-0.41813 0.54281-1.15898 0.54281-0.74088 0-1.16633-0.52814-0.4181-0.52815-0.4181-1.53307 0-0.99761 0.4181-1.52575 0.41812-0.53549 1.16633-0.53549zm0 0.75555q-0.28609 0-0.41813 0.30074-0.13192 0.29341-0.13192 1.00495 0 0.71886 0.13192 1.01959 0.13215 0.29342 0.41813 0.29342 0.28606 0 0.4181-0.30074 0.13215-0.30076 0.13215-1.01227 0-0.71886-0.13215-1.01228-0.13215-0.29341-0.4181-0.29341z"/><path d="m170.543 169.985q-0.19799 0-0.29341 0.10997-0.088 0.10258-0.088 0.32275v0.47679h0.7262l-0.10997 0.71153h-0.61616v3.17619h-0.99761v-3.17619h-0.46946v-0.71153h0.46946v-0.44745q0-0.55016 0.31543-0.88024 0.32276-0.3301 0.92425-0.3301 0.46212 0 0.89491 0.22734l-0.26407 0.64551q-0.25675-0.12476-0.49148-0.12476z"/><path d="m174.682 174.606q-0.18344 0.1467-0.4181 0.21994-0.22734 0.0735-0.46214 0.0735-0.53547 0-0.80688-0.30074-0.2714-0.30808-0.2714-0.8289v-2.16391h-0.4328v-0.71153h0.4328v-0.8509l0.9976-0.12476v0.97559h0.72619l-0.0954 0.71153h-0.63084v2.15659q0 0.33742 0.27875 0.33742 0.0954 0 0.16865-0.0231 0.0732-0.0293 0.17605-0.088z"/><path d="m176.892 170.777q0.4181 0 0.66018 0.30076 0.24205 0.30074 0.24205 0.80688v2.89744h-0.9976v-2.78742q0-0.24205-0.0661-0.34475-0.0661-0.10281-0.19799-0.10281-0.26407 0-0.54282 0.52815v2.70672h-0.9976v-5.43546l0.9976-0.10281v2.0979q0.19061-0.28609 0.40346-0.42545 0.21278-0.13931 0.4988-0.13931z"/><path d="m181.377 172.75q0 0.0806-0.0231 0.38876h-1.98789q0.0293 0.57216 0.198 0.79222 0.17605 0.21994 0.48413 0.21994 0.21278 0 0.39611-0.0732 0.18344-0.0806 0.39611-0.24205l0.41077 0.55014q-0.52814 0.51347-1.26902 0.51347-0.78487 0-1.20299-0.53547-0.4181-0.53549-0.4181-1.4964 0-0.96094 0.3961-1.52575 0.39611-0.56483 1.13697-0.56483 0.69686 0 1.08562 0.50615 0.39611 0.4988 0.39611 1.46706zm-0.96826-0.28609q0-0.52814-0.11737-0.76287-0.11736-0.24205-0.38876-0.24205-0.2494 0-0.38143 0.23473-0.12476 0.23473-0.1541 0.82888h1.04161z"/><path d="m185.42 173.623h-1.21767l-0.22734 1.15898h-1.02694l1.25433-5.07604h1.247l1.24701 5.07604h-1.04894zm-0.14671-0.75552-0.46211-2.39132-0.46214 2.39132z"/><path d="m188.838 170.791q0.16865 0 0.30076 0.0513l-0.1615 0.96092q-0.13215-0.0439-0.27141-0.0439-0.27875 0-0.43278 0.23473-0.1541 0.22734-0.23473 0.6822v2.10522h-0.9976v-3.88772h0.87289l0.0732 0.66018q0.27142-0.76287 0.8509-0.76287z"/><path d="m191.53 174.606q-0.18344 0.1467-0.41813 0.21994-0.22734 0.0735-0.46211 0.0735-0.53549 0-0.80689-0.30074-0.27142-0.30808-0.27142-0.8289v-2.16391h-0.43277v-0.71153h0.43277v-0.8509l0.99761-0.12476v0.97559h0.72621l-0.0954 0.71153h-0.63084v2.15659q0 0.33742 0.27874 0.33742 0.0954 0 0.16866-0.0231 0.0735-0.0293 0.17605-0.088z"/><path d="m192.97 170.777q0.35944 0 0.66017 0.12476 0.30809 0.11736 0.53549 0.34475l-0.37411 0.54281q-0.39611-0.28607-0.74085-0.28607-0.198 0-0.30809 0.10258-0.10997 0.0954-0.10997 0.27875 0 0.12475 0.0513 0.21278 0.0587 0.0806 0.198 0.16865 0.13931 0.0806 0.42544 0.198 0.49881 0.19799 0.73354 0.46946 0.23473 0.26407 0.23473 0.71886 0 0.5795-0.40343 0.91693-0.40346 0.33007-1.0343 0.33007-0.40343 0-0.7482-0.1467-0.34475-0.14671-0.59415-0.41078l0.46946-0.5208q0.44012 0.35942 0.82888 0.35942 0.22018 0 0.34477-0.11736 0.12476-0.11737 0.12476-0.32276 0-0.22733-0.13215-0.35209-0.13192-0.13215-0.54281-0.29341-0.50613-0.20539-0.72619-0.46946-0.21278-0.26408-0.21278-0.67485 0-0.33008 0.1541-0.59415 0.16149-0.27142 0.46211-0.42545 0.30076-0.1541 0.70419-0.1541z"/><path d="m138.717 177.448h-1.01227v4.2765h-1.03427v-4.2765h-1.06364v-0.79954h3.22022z"/><path d="m141.089 177.719q0.41811 0 0.66018 0.30073 0.24206 0.30076 0.24206 0.80689v2.89746h-0.99761v-2.78742q0-0.24208-0.0661-0.34477-0.0661-0.10281-0.198-0.10281-0.26407 0-0.54281 0.52814v2.70674h-0.99761v-5.43548l0.99761-0.10281v2.0979q0.1906-0.28606 0.40345-0.42545 0.21278-0.13931 0.4988-0.13931z"/><path d="m145.574 179.692q0 0.0806-0.0231 0.38879h-1.98786q0.0293 0.57215 0.198 0.79221 0.17604 0.21995 0.48413 0.21995 0.21278 0 0.39611-0.0732 0.18344-0.0806 0.3961-0.24208l0.41078 0.55016q-0.52814 0.51348-1.269 0.51348-0.78489 0-1.20299-0.53549-0.41813-0.53547-0.41813-1.49641 0-0.96092 0.39611-1.52575 0.39611-0.5648 1.13699-0.5648 0.69684 0 1.08563 0.50612 0.3961 0.4988 0.3961 1.46706zm-0.96826-0.28606q0-0.52814-0.11736-0.76287-0.11737-0.24208-0.38879-0.24208-0.2494 0-0.38143 0.23473-0.12476 0.23473-0.1541 0.8289h1.04161z"/><path d="m149.8 179.487h-1.18832v2.23728h-1.04161v-5.07604h1.04161v2.02455h1.18832v-2.02455h1.04162v5.07604h-1.04162z"/><path d="m154.163 180.741q0 0.18344 0.0439 0.27874 0.0513 0.088 0.16866 0.14671l-0.20539 0.66017q-0.30808-0.0367-0.4988-0.15409-0.19061-0.12476-0.28607-0.38144-0.33742 0.55016-0.95359 0.55016-0.48413 0-0.77022-0.3301-0.28607-0.33008-0.28607-0.87289 0-0.63084 0.38876-0.96827 0.39611-0.33742 1.15166-0.33742h0.2714v-0.23473q0-0.35944-0.11737-0.4988-0.10997-0.14671-0.39611-0.14671-0.33007 0-0.84355 0.19084l-0.22733-0.63819q0.29341-0.13931 0.62351-0.21278 0.33008-0.0735 0.62349-0.0735 0.66753 0 0.99028 0.33008 0.32275 0.3301 0.32275 0.9976zm-1.44507 0.38143q0.30808 0 0.46946-0.41812v-0.79222h-0.17605q-0.33742 0-0.4988 0.1615-0.1541 0.1541-0.1541 0.48413 0 0.27874 0.0954 0.42545 0.0954 0.13931 0.26407 0.13931z"/><path d="m157.868 178.042q-0.28609 0.14671-0.90958 0.14671 0.31541 0.1541 0.46212 0.3961 0.1541 0.23473 0.1541 0.6015 0 0.58682-0.36677 0.94624-0.36677 0.35945-1.00495 0.35945-0.16866 0-0.35942-0.0513-0.12476 0.088-0.12476 0.27142 0 0.13931 0.0735 0.21278 0.0806 0.0661 0.30076 0.0661h0.39611q0.60882 0 0.96091 0.30809 0.3521 0.30073 0.3521 0.78486 0 0.56484-0.44012 0.90226-0.44012 0.34475-1.24701 0.34475-0.87289 0-1.21766-0.31541-0.33742-0.30808-0.33742-0.90958h0.89491q0 0.29341 0.13215 0.4181 0.13931 0.13215 0.53549 0.13215 0.36676 0 0.52079-0.13215 0.16127-0.13215 0.16127-0.37409 0-0.23473-0.13193-0.34477-0.12475-0.10997-0.3961-0.10997h-0.29342q-0.5648 0-0.82887-0.20539-0.25675-0.20539-0.25675-0.55016 0-0.38876 0.40345-0.70419-0.30808-0.1906-0.44746-0.45479-0.13932-0.26407-0.13932-0.65283 0-0.64551 0.38876-1.01962 0.38879-0.37409 1.05629-0.37409 0.47681 0 0.78489-0.10997 0.30808-0.10998 0.67485-0.32276zm-1.70179 0.35209q-0.23473 0-0.35944 0.16866-0.11737 0.16865-0.11737 0.55016 0 0.35942 0.11737 0.55014 0.12475 0.18344 0.35209 0.18344 0.23473 0 0.34477-0.16866 0.11737-0.16865 0.11737-0.57948 0-0.36676-0.10997-0.53548-0.10998-0.16866-0.34475-0.16866z"/><path d="m160.915 181.724h-0.87289l-0.0441-0.46946q-0.35944 0.58683-0.93159 0.58683-0.42545 0-0.67485-0.30076-0.24206-0.30809-0.24206-0.79954v-2.90479h0.99761v2.85343q0 0.40345 0.27139 0.40345 0.27874 0 0.4988-0.46946v-2.78742h0.99761z"/><path d="m164.528 179.692q0 0.0806-0.0231 0.38879h-1.98786q0.0293 0.57215 0.198 0.79221 0.17605 0.21995 0.48413 0.21995 0.21278 0 0.39611-0.0732 0.18344-0.0806 0.3961-0.24208l0.41078 0.55016q-0.52814 0.51348-1.269 0.51348-0.78489 0-1.20299-0.53549-0.4181-0.53547-0.4181-1.49641 0-0.96092 0.39611-1.52575 0.39608-0.5648 1.13696-0.5648 0.69684 0 1.08563 0.50612 0.3961 0.4988 0.3961 1.46706zm-0.96827-0.28606q0-0.52814-0.11736-0.76287-0.11737-0.24208-0.38879-0.24208-0.2494 0-0.38143 0.23473-0.12476 0.23473-0.1541 0.8289h1.04161z"/></g></g></g></svg>
